<svg viewBox="0 0 32 32" fill="none" xmlns="http://www.w3.org/2000/svg" style="width: 32px; height: 32px; color: rgb(43, 5, 20);"><path d="M12.0002 16.0999C12.7402 16.0999 13.3402 15.5 13.3402 14.7599C13.3402 14.0199 12.7402 13.4199 12.0002 13.4199C11.2601 13.4199 10.6602 14.0199 10.6602 14.7599C10.6602 15.5 11.2601 16.0999 12.0002 16.0999Z" fill="currentColor"></path><path d="M15.9801 16.0999C16.7202 16.0999 17.3201 15.5 17.3201 14.7599C17.3201 14.0199 16.7202 13.4199 15.9801 13.4199C15.2401 13.4199 14.6401 14.0199 14.6401 14.7599C14.6401 15.5 15.2401 16.0999 15.9801 16.0999Z" fill="currentColor"></path><path d="M20.0002 16.0999C20.7402 16.0999 21.3402 15.5 21.3402 14.7599C21.3402 14.0199 20.7402 13.4199 20.0002 13.4199C19.2601 13.4199 18.6602 14.0199 18.6602 14.7599C18.6602 15.5 19.2601 16.0999 20.0002 16.0999Z" fill="currentColor"></path><path d="M22.59 20.44H11.15L9.06 23.02C8.66 23.4 8 23.12 8 22.18L8.04 10.02C8.04 9.63 8.67 9 9.45 9H22.63C23.41 9 24 9.62 24 10.4V19.04C24 19.82 23.37 20.45 22.59 20.45V20.44Z" stroke="currentColor" stroke-width="2" stroke-miterlimit="10"></path></svg>