<?xml version="1.0" encoding="UTF-8"?>
<svg width="29px" height="22px" viewBox="0 0 29 22" version="1.1" xmlns="http://www.w3.org/2000/svg" xmlns:xlink="http://www.w3.org/1999/xlink">
    <!-- Generator: Sketch 52.3 (67297) - http://www.bohemiancoding.com/sketch -->
    <title>Group 3</title>
    <desc>Created with Sketch.</desc>
    <g id="Page-1" stroke="none" stroke-width="1" fill="none" fill-rule="evenodd">
        <g id="home-copy" transform="translate(-665.000000, -642.000000)" fill="#000000">
            <g id="Group-3" transform="translate(665.000000, 642.000000)">
                <path d="M25.9035733,21.8552632 L3.09642667,21.8552632 C1.38968,21.8552632 0,20.4681053 0,18.7644561 L0,3.23554386 C0,1.53189474 1.38968,0.144736842 3.09642667,0.144736842 L25.9035733,0.144736842 C27.61032,0.144736842 29,1.53189474 29,3.23554386 L29,18.7644561 C29,20.4681053 27.61032,21.8552632 25.9035733,21.8552632 Z M3.09642667,1.50178947 C2.13865333,1.50178947 1.35952,2.27950877 1.35952,3.23554386 L1.35952,18.7644561 C1.35952,19.7204912 2.13865333,20.4982105 3.09642667,20.4982105 L25.9035733,20.4982105 C26.8613467,20.4982105 27.64048,19.7204912 27.64048,18.7644561 L27.64048,3.23554386 C27.64048,2.27950877 26.8613467,1.50178947 25.9035733,1.50178947 L3.09642667,1.50178947 Z" id="Fill-1"></path>
                <path d="M14.5,14.1992632 C13.9517067,14.1992632 13.4034133,14.0213333 12.9456,13.6639298 L3.47381333,6.2765614 C3.17801333,6.04575439 3.12658667,5.61926316 3.35781333,5.32361404 C3.58710667,5.02950877 4.01321333,4.97547368 4.31210667,5.2074386 L13.7838933,12.595193 C14.20536,12.9236491 14.7961867,12.9236491 15.2172667,12.595193 L24.68944,5.2074386 C24.9867867,4.97547368 25.4128933,5.02950877 25.6437333,5.32361404 C25.87496,5.61926316 25.8219867,6.04575439 25.5277333,6.2765614 L16.05556,13.6639298 C15.5965867,14.0213333 15.0482933,14.1992632 14.5,14.1992632 Z" id="Fill-2"></path>
            </g>
        </g>
    </g>
</svg>