<svg width="20" height="20" viewBox="0 0 20 20" fill="none" xmlns="http://www.w3.org/2000/svg"><path fill-rule="evenodd" clip-rule="evenodd" d="M1.25073 0.375C0.767483 0.375 0.375732 0.766751 0.375732 1.25V18.75C0.375732 19.2332 0.767483 19.625 1.25073 19.625H18.7492C19.2324 19.625 19.6242 19.2332 19.6242 18.75V1.25C19.6242 0.766751 19.2324 0.375 18.7492 0.375H1.25073ZM2.12573 17.875V2.125H17.8742V17.875H2.12573ZM3.75244 2.875C3.26919 2.875 2.87744 3.26675 2.87744 3.75V6.875C2.87744 7.35825 3.26919 7.75 3.75244 7.75C4.23569 7.75 4.62744 7.35825 4.62744 6.875V4.625H6.87744C7.36069 4.625 7.75244 4.23325 7.75244 3.75C7.75244 3.26675 7.36069 2.875 6.87744 2.875H3.75244ZM13.1274 2.875C12.6442 2.875 12.2524 3.26675 12.2524 3.75C12.2524 4.23325 12.6442 4.625 13.1274 4.625H15.3774V6.875C15.3774 7.35825 15.7692 7.75 16.2524 7.75C16.7357 7.75 17.1274 7.35825 17.1274 6.875V3.75C17.1274 3.26675 16.7357 2.875 16.2524 2.875H13.1274ZM4.62744 13.125C4.62744 12.6418 4.23569 12.25 3.75244 12.25C3.26919 12.25 2.87744 12.6418 2.87744 13.125V16.25C2.87744 16.7332 3.26919 17.125 3.75244 17.125H6.87744C7.36069 17.125 7.75244 16.7332 7.75244 16.25C7.75244 15.7668 7.36069 15.375 6.87744 15.375H4.62744V13.125ZM17.1274 13.125C17.1274 12.6418 16.7357 12.25 16.2524 12.25C15.7692 12.25 15.3774 12.6418 15.3774 13.125V15.375H13.1274C12.6442 15.375 12.2524 15.7668 12.2524 16.25C12.2524 16.7332 12.6442 17.125 13.1274 17.125H16.2524C16.7357 17.125 17.1274 16.7332 17.1274 16.25V13.125Z" fill="currentColor"></path></svg> 