<svg viewBox="0 0 32 32" fill="none" xmlns="http://www.w3.org/2000/svg" style="width: 32px; height: 32px; color: rgb(43, 5, 20);"><path d="M16.1201 11.8799V22.4999" stroke="currentColor" stroke-width="2" stroke-miterlimit="10"></path><path d="M22.42 18H10" stroke="currentColor" stroke-width="2" stroke-miterlimit="10"></path><path d="M21.47 23H10.53C9.69 22.99 9 22.5 9 21.89V14.09C9 13.49 9.69 13 10.53 13H21.47C22.31 13.01 23 13.5 23 14.11V21.91C23 22.51 22.31 23 21.47 23Z" stroke="currentColor" stroke-width="2" stroke-miterlimit="10"></path><path d="M16.6699 12.6299L19.3499 15.3599" stroke="currentColor" stroke-width="2" stroke-linecap="round" stroke-linejoin="round"></path><path d="M15.5499 12.6299L12.8699 15.3599" stroke="currentColor" stroke-width="2" stroke-linecap="round" stroke-linejoin="round"></path><path d="M17.69 12.6299H16.08V10.9499C16.08 9.86988 16.96 8.99988 18.03 8.99988H19.71V10.6099C19.71 11.7299 18.8 12.6299 17.69 12.6299V12.6299Z" stroke="currentColor" stroke-width="2" stroke-miterlimit="10"></path><path d="M14.31 12.6299H15.92V10.9499C15.92 9.86988 15.04 8.99988 13.97 8.99988H12.29V10.6099C12.29 11.7299 13.2 12.6299 14.31 12.6299V12.6299Z" stroke="currentColor" stroke-width="2" stroke-miterlimit="10"></path></svg>