<?xml version="1.0" encoding="UTF-8"?>
<svg width="26px" height="26px" viewBox="0 0 26 26" version="1.1" xmlns="http://www.w3.org/2000/svg" xmlns:xlink="http://www.w3.org/1999/xlink">
    <!-- Generator: Sketch 52.3 (67297) - http://www.bohemiancoding.com/sketch -->
    <title>Fill 1</title>
    <desc>Created with Sketch.</desc>
    <g id="Page-1" stroke="none" stroke-width="1" fill="none" fill-rule="evenodd">
        <g id="home-copy" transform="translate(-667.000000, -684.000000)" fill="#000000">
            <path d="M671.459099,684 C670.344526,684 669.475441,684.447811 668.936899,685.089756 C668.398356,685.7317 668.181085,686.528217 668.181085,687.250098 C668.181085,688.296623 668.651906,689.136371 669.248495,689.735492 C669.291224,689.778315 669.336774,689.818284 669.380712,689.859476 L667.632868,689.859476 C667.28338,689.859476 667.001612,690.146189 667,690.499789 L667,696.999985 C667.001612,697.351954 667.28338,697.638667 667.632868,697.640298 L668.181085,697.640298 L668.181085,709.359658 C668.182697,709.711626 668.464465,709.998339 668.813953,709.999971 L691.186039,709.999971 C691.356148,710.001602 691.518194,709.934716 691.639527,709.815218 C691.759248,709.694089 691.828582,709.530136 691.828582,709.359658 L691.828582,697.640298 L692.367124,697.640298 C692.716612,697.638667 692.99838,697.351954 692.999992,696.999985 L692.999992,690.499789 C693.001605,690.170252 692.756116,689.89455 692.433233,689.859476 C692.411062,689.857844 692.388892,689.857844 692.367124,689.859476 L690.61928,689.859476 C690.663218,689.818284 690.708768,689.778315 690.751497,689.735492 C691.348086,689.136371 691.828582,688.296623 691.828582,687.250098 C691.828582,686.528217 691.601636,685.7317 691.063093,685.089756 C690.524551,684.447811 689.655466,684 688.540893,684 C686.830537,684 684.934754,685.042038 683.240522,686.294115 C681.923995,687.267636 680.762259,688.36514 679.999996,689.362316 C679.237733,688.36514 678.075997,687.267636 676.75947,686.294115 C675.065238,685.042038 673.169455,684 671.459099,684 Z M671.459099,685.290414 C672.608742,685.290414 674.430757,686.166868 676.012927,687.336153 C677.099687,688.138788 678.088493,689.077234 678.752803,689.859476 L671.638882,689.859476 C671.098727,689.556857 670.546076,689.219163 670.146201,688.817846 C669.712867,688.384309 669.446821,687.927117 669.446821,687.250098 C669.446821,686.799024 669.59355,686.28759 669.900309,685.921347 C670.205859,685.555104 670.656123,685.290414 671.459099,685.290414 Z M688.540893,685.290414 C689.343869,685.290414 689.79252,685.555104 690.099683,685.921347 C690.406443,686.28759 690.553171,686.799024 690.553171,687.250098 C690.553171,687.927117 690.296396,688.384309 689.863466,688.817846 C689.46359,689.219163 688.910536,689.556857 688.370784,689.859476 L681.247189,689.859476 C681.911499,689.077234 682.900305,688.138788 683.987065,687.336153 C685.569235,686.166868 687.39125,685.290414 688.540893,685.290414 Z M668.27541,691.14051 L671.402665,691.14051 C671.443378,691.143772 671.484495,691.143772 671.525611,691.14051 L679.367128,691.14051 L679.367128,696.359672 L668.27541,696.359672 L668.27541,691.14051 Z M680.632864,691.14051 L688.36111,691.14051 C688.463497,691.165796 688.570722,691.165796 688.67311,691.14051 L691.733853,691.14051 L691.733853,696.359672 L680.632864,696.359672 L680.632864,691.14051 Z M669.446821,697.640298 L679.367128,697.640298 L679.367128,708.718937 L669.446821,708.718937 L669.446821,697.640298 Z M680.632864,697.640298 L690.553171,697.640298 L690.553171,708.718937 L680.632864,708.718937 L680.632864,697.640298 Z" id="Fill-1"></path>
        </g>
    </g>
</svg>