<svg width="27" height="25" viewBox="0 0 27 25" fill="none" xmlns="http://www.w3.org/2000/svg">
<rect width="6.08575" height="24.3438" rx="3.04288" transform="matrix(0.697555 0.716532 -0.696709 0.717354 22.6201 2.33936)" fill="#FFCCE3"/>
<path d="M22.6465 1.64169C22.0617 1.04019 21.2841 0.708984 20.457 0.708984C19.6299 0.708984 18.8524 1.04019 18.2675 1.64169L14.8589 5.1472L3.86535 3.15211C3.54612 3.0942 3.22835 3.25881 3.08343 3.55679L1.74601 6.30785C1.56517 6.67971 1.71175 7.13186 2.07334 7.31774L9.19004 10.9772L7.27975 12.9418L3.77293 12.7701C3.56661 12.7606 3.36635 12.8398 3.22055 12.9897L1.21432 15.053C1.04558 15.2266 0.969652 15.474 1.01113 15.7158C1.05251 15.9577 1.20603 16.1635 1.42239 16.2673L6.19685 18.5587L8.42491 23.4689C8.52592 23.6914 8.72608 23.8494 8.96119 23.8919C9.00364 23.8996 9.04599 23.9034 9.08825 23.9034C9.28071 23.9034 9.4674 23.8253 9.60589 23.6828L11.6122 21.6195C11.758 21.4696 11.8355 21.2633 11.8257 21.0514L11.6588 17.4452L13.5692 15.4805L17.1275 22.7994C17.2144 22.978 17.3665 23.1138 17.5507 23.1769C17.626 23.2027 17.7042 23.2155 17.7822 23.2155C17.8947 23.2155 18.0069 23.1888 18.1095 23.136L20.7844 21.7605C21.0741 21.6116 21.2341 21.2845 21.1778 20.9565L19.2379 9.65057L22.6466 6.14495C23.8537 4.90351 23.8537 2.88323 22.6465 1.64169ZM3.38275 6.30775L4.14866 4.73229L13.5954 6.44666L10.2812 9.85501L3.38275 6.30775ZM19.6413 20.6652L18.1095 21.453L14.6602 14.3585L17.9743 10.9501L19.6413 20.6652ZM21.6113 5.08046L10.3945 16.6161C10.2487 16.7661 10.1712 16.9723 10.181 17.1842L10.348 20.7906L9.30959 21.8585L7.41082 17.6742C7.33821 17.5139 7.213 17.3851 7.05714 17.3104L2.98847 15.3576L4.02677 14.2897L7.53359 14.4614C7.74098 14.4715 7.94016 14.3917 8.08597 14.2418L19.3029 2.70628C19.6112 2.38922 20.0211 2.21459 20.4571 2.21459C20.8932 2.21459 21.3031 2.38922 21.6114 2.70628C22.2478 3.36078 22.2478 4.42587 21.6113 5.08046Z" fill="#333333" stroke="#333333" stroke-width="0.3"/>
</svg>
