<svg viewBox="0 0 32 32" fill="none" xmlns="http://www.w3.org/2000/svg" style="width: 32px; height: 32px; color: rgb(43, 5, 20);"><g clip-path="url(#clip0_12688_46254)"><path d="M22 10L10 22.17" stroke="currentColor" stroke-width="2" stroke-linecap="round" stroke-linejoin="round"></path><path d="M20 22.1802C21.0991 22.1802 21.99 21.2892 21.99 20.1902C21.99 19.0911 21.0991 18.2002 20 18.2002C18.901 18.2002 18.01 19.0911 18.01 20.1902C18.01 21.2892 18.901 22.1802 20 22.1802Z" stroke="currentColor" stroke-width="2" stroke-linecap="round" stroke-linejoin="round"></path><path d="M12 14.1304C13.0991 14.1304 13.99 13.2394 13.99 12.1404C13.99 11.0413 13.0991 10.1504 12 10.1504C10.901 10.1504 10.01 11.0413 10.01 12.1404C10.01 13.2394 10.901 14.1304 12 14.1304Z" stroke="currentColor" stroke-width="2" stroke-linecap="round" stroke-linejoin="round"></path></g><defs><clipPath id="clip0_12688_46254"><rect width="14" height="14.18" fill="white" transform="translate(9 9)"></rect></clipPath></defs></svg>