<?xml version="1.0" encoding="UTF-8"?>
<svg width="25px" height="31px" viewBox="0 0 25 31" version="1.1" xmlns="http://www.w3.org/2000/svg" xmlns:xlink="http://www.w3.org/1999/xlink">
    <!-- Generator: Sketch 52.3 (67297) - http://www.bohemiancoding.com/sketch -->
    <title>Group 3</title>
    <desc>Created with Sketch.</desc>
    <g id="Page-1" stroke="none" stroke-width="1" fill="none" fill-rule="evenodd">
        <g id="home-copy" transform="translate(-667.000000, -594.000000)" fill="#000000">
            <g id="Group-3" transform="translate(667.000000, 594.000000)">
                <path d="M24.7425532,10.3969649 L23.8010638,2.52405263 C23.7303191,1.87359649 23.387766,1.28731579 22.8601064,0.915859649 C22.3319149,0.543859649 21.6734043,0.426929825 21.0521277,0.590631579 L13.1335106,2.63010526 C12.2276596,2.86994737 11.4425532,3.45459649 10.9393617,4.26168421 L0.731382979,20.2968421 C0.29893617,20.9663333 0.137234043,21.7799474 0.280319149,22.568 C0.419680851,23.3522456 0.868617021,24.0402281 1.52074468,24.4736842 L9.83829787,30.0123509 C10.2952128,30.318 10.8271277,30.4795263 11.3718085,30.4773509 C12.3962766,30.4708246 13.35,29.9356667 13.9047872,29.0540702 L24.1606383,12.923193 C24.6404255,12.1775614 24.8462766,11.2829123 24.7425532,10.3969649 Z M22.8223404,12.0285439 L12.568617,28.1659474 C12.1819149,28.8202105 11.3531915,29.0350351 10.7090426,28.6461754 L2.39148936,23.1205614 C2.10265957,22.9247719 1.90744681,22.6191228 1.84946809,22.2705088 C1.78297872,21.8947018 1.86170213,21.5058421 2.06755319,21.1849649 L12.2797872,5.12642105 C12.5664894,4.67175439 13.0090426,4.34 13.5223404,4.20240351 L21.4409574,2.16292982 C21.4968085,2.15640351 21.5547872,2.15640351 21.6111702,2.16292982 C21.7335106,2.15857895 21.8542553,2.19664912 21.9537234,2.26898246 C22.1037234,2.37721053 22.2010638,2.5474386 22.2180851,2.73180702 L23.1590426,10.6052632 C23.2154255,11.1067018 23.0946809,11.6124912 22.8244681,12.0328947 L22.8223404,12.0285439 Z" id="Fill-1"></path>
                <path d="M19.3606383,5.73608772 C18.606383,5.23464912 17.6303191,5.24715789 16.8882979,5.76763158 C16.1446809,6.2902807 15.7808511,7.21701754 15.9659574,8.11764912 C16.1196809,8.8632807 16.6287234,9.48164912 17.3202128,9.76608772 C18.012234,10.0488947 18.7957447,9.95915789 19.4106383,9.52842105 C20.0255319,9.09714035 20.3893617,8.38087719 20.3787234,7.61838596 C20.368617,6.85535088 19.9882979,6.15050877 19.3606383,5.73608772 Z M18.675,7.99419298 C18.5547872,8.18563158 18.3446809,8.29603509 18.1223404,8.28733333 C17.9,8.27917544 17.6984043,8.15136842 17.5925532,7.94959649 C17.4867021,7.75 17.4909574,7.50798246 17.6053191,7.31219298 C17.7191489,7.11694737 17.9271277,6.99784211 18.1494681,7.00001754 C18.2702128,7.00001754 18.3882979,7.0342807 18.4925532,7.10226316 C18.7829787,7.29750877 18.8643617,7.69670175 18.675,7.99419298 Z" id="Fill-2"></path>
            </g>
        </g>
    </g>
</svg>